<?xml version="1.0" encoding="UTF-8" standalone="no"?>
<!-- Created with Inkscape (http://www.inkscape.org/) -->
<svg id="svg11088" xmlns:rdf="http://www.w3.org/1999/02/22-rdf-syntax-ns#" xmlns="http://www.w3.org/2000/svg" height="250" width="500" version="1.1" xmlns:cc="http://creativecommons.org/ns#" xmlns:dc="http://purl.org/dc/elements/1.1/">
 <defs id="defs11090"></defs>
 <metadata id="metadata11093">
  <rdf:RDF>
   <cc:Work rdf:about="">
    <dc:format>image/svg+xml</dc:format>
    <dc:type rdf:resource="http://purl.org/dc/dcmitype/StillImage"/>
    <dc:title/>
   </cc:Work>
  </rdf:RDF>
 </metadata>
 <g id="flowRoot3883" font-size="40px" font-family="Bell MT" clip-path="none" transform="matrix(2.5425705,0,0,7.3816688,1027.3443,-1502.5826)" line-height="125%" font-stretch="normal" font-variant="normal" font-weight="normal" style="letter-spacing:0px;word-spacing:0px;" font-style="normal" fill="#FFF">
  <path id="path3993" d="m-293.28,194.38c-1.1554,0.00002-2.2637,0.10127-3.3438,0.28125-1.105,0.18419-2.1423,0.51914-3.125,1.0312-0.97867,0.51003-1.7925,1.1158-2.4062,1.8438-0.59728,0.70841-1.069,1.5112-1.375,2.3438-0.30281,0.82394-0.4375,1.6457-0.4375,2.5,0,0.70628,0.0857,1.4035,0.28125,2.0625,0.19572,0.65967,0.50007,1.2692,0.90625,1.875,0.41526,0.61939,0.97527,1.2834,1.6875,1.9688,0.36073,0.34688,0.95061,0.86246,1.8125,1.5938l3.6875,3.2188c0.31042,0.27463,0.53493,0.5375,0.6875,0.75,0.17293,0.24088,0.28014,0.3997,0.3125,0.5,0.0409,0.12709,0.0625,0.29641,0.0625,0.46875-0.00001,0.44186-0.17264,0.69834-0.71875,0.96875-0.56125,0.27789-1.3607,0.43751-2.4375,0.4375-0.80616,0.00001-1.7671-0.1281-2.875-0.375-1.0844-0.24166-2.3767-0.70275-3.8125-1.3438a0.56647,0.56647,0,0,0,-0.78125,0.59375c0.21869,1.6466,0.42504,3.8608,0.59375,6.625a0.56647,0.56647,0,0,0,0.46875,0.53125c3.2366,0.61586,5.9261,0.9375,8.0938,0.9375,1.4039,0,2.7264-0.12323,4-0.40625,1.2948-0.28775,2.5053-0.80794,3.5938-1.5312,1.1045-0.73399,1.9608-1.7033,2.5625-2.8438,0.59912-1.1356,0.90623-2.3304,0.90625-3.5938-0.00002-0.48378-0.0209-0.95242-0.125-1.4062-0.10446-0.45503-0.29906-0.89671-0.5-1.3125-0.21208-0.43873-0.47852-0.88799-0.84375-1.375a0.56647,0.56647,0,0,0,-0.0312,0c-0.36748-0.48994-0.78002-0.99874-1.2812-1.5-0.49477-0.49474-0.97409-0.89885-1.4062-1.25l-1.4062-1.125c-1.0046-0.78279-1.7408-1.3715-2.1875-1.75-0.45041-0.38157-0.79961-0.7265-1.0625-1.0312-0.26436-0.30639-0.43544-0.56538-0.5-0.71875-0.0725-0.17209-0.12501-0.37763-0.125-0.5625-0.00001-0.31662,0.17837-0.58436,0.75-0.90625,0.56217-0.31655,1.3031-0.49998,2.25-0.5,0.66739,0.00002,1.4714,0.097,2.4375,0.28125,0.9459,0.18049,1.9861,0.49818,3.1562,0.96875a0.56647,0.56647,0,0,0,0.78125,-0.59375c-0.19456-1.8676-0.2919-3.1298-0.34375-3.875-0.0523-0.75155-0.11776-1.6133-0.15625-2.5a0.56647,0.56647,0,0,0,-0.48,-0.54c-2.6225-0.51393-5.0392-0.74998-7.2812-0.75zm144.62,0c-3.325,0.00002-6.351,0.62557-9.0312,1.875-2.6826,1.2506-4.7112,3.027-6.0938,5.2812-1.3803,2.2507-2.0625,4.844-2.0625,7.7812,0,2.0009,0.31533,3.8392,0.96875,5.5,0.66012,1.6778,1.7611,3.2143,3.3125,4.5625,1.5565,1.3526,3.4105,2.3064,5.5,2.9062,2.069,0.59399,4.2175,0.90625,6.4688,0.90625,2.2798,0,4.4865-0.33069,6.5938-0.9375,2.1229-0.61134,3.9792-1.5408,5.5312-2.875,1.5482-1.331,2.7426-2.971,3.5625-4.875,0.81992-1.9042,1.2187-3.9935,1.2188-6.25-0.00004-2.1518-0.37296-4.0681-1.125-5.75-0.75012-1.6774-1.87-3.1874-3.375-4.4688-1.5078-1.2836-3.2837-2.2009-5.2812-2.7812-1.9797-0.57516-4.0527-0.87498-6.1875-0.875zm-54.25,0.40625c-1.4203,0-2.8955,0.003-4.4062,0.0625-1.4937,0.0585-2.7524,0.0938-3.7812,0.0937-0.9938,0-2.3118-0.0234-3.9375-0.0625a0.56647,0.56647,0,0,0,-0.5625,0.5625c0,1.5787-0.0417,3.7488-0.0937,6.4375-0.0521,2.687-0.11489,5.2104-0.21875,7.625-0.10393,2.4162-0.23237,4.5467-0.375,6.375-0.14256,1.8273-0.34669,3.8677-0.59375,6.1562a0.56647,0.56647,0,0,0,0.5625,0.625c1.9636-0.0261,3.3411-0.0312,4.0938-0.0312,0.64799,0,2.0462,0.005,4.2188,0.0312a0.56647,0.56647,0,0,0,0.5625,-0.5625c0.039-3.6905,0.15108-7.4103,0.28125-11.25,0.12304-3.6299,0.24985-6.6727,0.40625-9.25,0.4206-0.005,0.86542-0.0171,1.2188-0.0312,0.48338-0.0191,0.92913-0.0312,1.375-0.0312,1.3118,0.00002,2.2445,0.10777,2.7812,0.28125,0.5706,0.18447,0.95186,0.42998,1.1562,0.71875,0.22883,0.32337,0.34373,0.68944,0.34375,1.1562-0.00002,0.55229-0.15852,1.0787-0.5,1.5938-0.32579,0.49134-0.77982,0.83903-1.4688,1.0938-0.70634,0.26118-1.5158,0.40627-2.4062,0.40625-0.64512,0.00002-1.3009-0.0638-1.9688-0.1875a0.56647,0.56647,0,0,0,-0.625,0.75l2,5.5312c0.61052,1.6628,1.0644,2.9563,1.375,3.875,0.14543,0.38787,0.34277,0.98747,0.5625,1.75,0.54861,1.8418,0.95096,3.0828,1.1562,3.75a0.56647,0.56647,0,0,0,0.53125,0.40625c2.133-0.0261,3.6583-0.0312,4.5938-0.0312,0.7395,0,2.1975,0.005,4.3438,0.0312a0.56647,0.56647,0,0,0,0.55,-0.79c-0.3027-0.73696-0.53379-1.2102-0.65625-1.4688l-2.625-5.75h0.0312c-0.32224-0.70888-0.6214-1.3762-0.90625-2.0625l-0.8125-1.9688c1.0321-0.43021,1.9739-0.87257,2.625-1.3125,0.78119-0.52784,1.4266-1.1854,1.9375-1.9062,0.51392-0.72514,0.85651-1.4962,1.0938-2.3125,0.23548-0.81044,0.37497-1.6684,0.375-2.5938-0.00003-0.83471-0.12718-1.6101-0.34375-2.3438-0.21537-0.72936-0.49346-1.425-0.90625-2-0.40335-0.56175-0.9145-1.0296-1.5-1.4688a0.56647,0.56647,0,0,0,0,-0.0312c-0.60155-0.45111-1.3156-0.79301-2.1562-1.0938-0.85617-0.30624-1.7978-0.49899-2.8125-0.59375-1.3277-0.13277-2.8204-0.18747-4.5-0.1875zm-77.469,0.0937a0.56647,0.56647,0,0,0,-0.46875,0.5625v3.0624l-0.1875,5.5625-0.78125,13.875v0.0312l-0.375,4.0625a0.56647,0.56647,0,0,0,0.5625,0.625c1.9638-0.0261,3.2866-0.0312,4-0.0312,0.84401,0,2.1077,0.005,3.7188,0.0312a0.56647,0.56647,0,0,0,0.5625,-0.5625l0.1875-7.75v-0.0312l0.3125-7.1562c0.29167,0.54816,0.58841,1.1516,0.875,1.6562,0.91522,1.6736,1.9164,3.4224,3,5.25l3.2812,5.5625c0.32193,0.56662,0.82499,1.4466,1.5,2.7188a0.56647,0.56647,0,0,0,0.5,0.3125c2.1587-0.0261,3.8714-0.0312,5.0938-0.0312,1.47,0,3.0302,0.005,4.7188,0.0312a0.56647,0.56647,0,0,0,0.5625,-0.5625l0.125-4.625v-0.0312l0.875-16.125,0.46875-5.8438a0.56647,0.56647,0,0,0,-0.5625,-0.59375c-2.1131,0.0262-3.401,0.0625-3.8125,0.0625-0.94931,0-2.2385-0.0363-3.8438-0.0625a0.56647,0.56647,0,0,0,-0.5625,0.5625c-0.00002,1.4854-0.10029,4.2113-0.25,8.1562-0.11517,3.034-0.23323,5.0988-0.34375,7.0938l-0.15625-0.34375a0.56647,0.56647,0,0,0,0,-0.0312l-8.375-15.156a0.56647,0.56647,0,0,0,-0.5,-0.28125c-2.0083,0.0261-3.5619,0.0625-4.6562,0.0625-1.5406,0-3.3543-0.0364-5.375-0.0625a0.56647,0.56647,0,0,0,-0.0937,0zm42.031,0a0.56647,0.56647,0,0,0,-0.40625,0.3125c-0.56348,1.1794-0.98003,2.1163-1.2812,2.7188l-1.08,2.09v0.0312l-10.094,18.969-1.625,2.8125a0.56647,0.56647,0,0,0,0.5,0.84375c2.1982-0.0261,3.7936-0.0312,4.7812-0.0312,0.54324,0,2.0486,0.005,4.4688,0.0312a0.56647,0.56647,0,0,0,0.53125,-0.34375c1.1575-2.6386,2.2301-5.0153,3.3125-7.2188h9.0938c1.001,2.7122,1.8065,5.1416,2.3438,7.1562a0.56647,0.56647,0,0,0,0.5625,0.40625c2.1198-0.0261,3.7205-0.0312,4.8125-0.0312,0.47762,0,1.8429,0.005,4.0938,0.0312a0.56647,0.56647,0,0,0,0.53125,-0.78125l-1.125-2.8125v-0.0312l-5.8125-15.625-2.8438-8.1562a0.56647,0.56647,0,0,0,-0.53125,-0.375c-1.5645,0.0261-3.2653,0.0625-5.0938,0.0625-1.0417,0-2.7368-0.0364-5.0312-0.0625a0.56647,0.56647,0,0,0,-0.0937,0zm51.375,0a0.56647,0.56647,0,0,0,-0.46875,0.5625c-0.00001,2.2127-0.0822,5.0697-0.21875,8.5625-0.1364,3.4878-0.35203,7.0269-0.625,10.562-0.14273,1.9333-0.36255,4.4012-0.6875,7.4688a0.56647,0.56647,0,0,0,0.5625,0.625c3.148-0.0261,6.8078-0.0312,11-0.0312,3.0983,0,6.3589,0.005,9.7812,0.0312a0.56647,0.56647,0,0,0,0.5625,-0.53125l0.4375-5.875a0.56647,0.56647,0,0,0,-0.59375,-0.59375c-1.7363,0.09-4.3293,0.125-7.75,0.125-0.57395,0-2.0285-0.0325-3.7812-0.0625l0.0625-2.125,0.59375-11.031,0.46875-7.0938a0.56647,0.56647,0,0,0,-0.5625,-0.59375c-1.7353,0.0262-3.0904,0.0625-4,0.0625-1.3572,0-2.9138-0.0364-4.6875-0.0625a0.56647,0.56647,0,0,0,-0.0937,0zm37.969,6.5c1.3347,0.00002,2.5219,0.30823,3.5625,0.90625,1.0381,0.59667,1.802,1.4104,2.3438,2.5,0.54485,1.0958,0.81247,2.3101,0.8125,3.625-0.00003,1.3516-0.2788,2.6083-0.875,3.8438-0.58917,1.2208-1.4223,2.1471-2.5312,2.8125-1.1152,0.6691-2.331,1-3.6875,1-1.2725,0-2.4695-0.27662-3.5938-0.875-1.1194-0.59583-1.9265-1.3887-2.4688-2.4375-0.55049-1.0647-0.84376-2.2681-0.84375-3.5625-0.00001-1.4094,0.32131-2.699,0.9375-3.9375,0.60851-1.2231,1.441-2.1624,2.5625-2.8438,1.1266-0.68441,2.382-1.0312,3.7812-1.0312zm-84.719,1.4062c0.28155,0.88368,0.79099,2.4804,1.7812,5.5h-4.375l1-2.0625c0.43638-0.89174,1.0236-2.1862,1.5938-3.4375z" transform="translate(-86.807538,11.708541)" fill="#FFF"/>
 </g>
</svg>
